<svg xmlns="http://www.w3.org/2000/svg" viewBox="0 0 512 512" width="512" height="512">
  <rect width="512" height="512" rx="80" fill="#0F172A"/>
  
  <!-- Open book shape - scaled up and centered -->
  <g transform="translate(256, 256)">
    <!-- Left page -->
    <path d="M-14,-110 L-14,80 Q-14,92 -26,95 L-170,120 Q-182,122 -190,112 L-190,-85 Q-190,-95 -178,-97 L-26,-120 Q-14,-122 -14,-110Z" fill="#E2E8F0" opacity="0.95"/>
    <!-- Right page -->
    <path d="M14,-110 L14,80 Q14,92 26,95 L170,120 Q182,122 190,112 L190,-85 Q190,-95 178,-97 L26,-120 Q14,-122 14,-110Z" fill="#F8FAFC"/>
    
    <!-- Text lines left page -->
    <line x1="-155" y1="-55" x2="-45" y2="-70" stroke="#94A3B8" stroke-width="6" stroke-linecap="round"/>
    <line x1="-152" y1="-25" x2="-42" y2="-40" stroke="#94A3B8" stroke-width="6" stroke-linecap="round"/>
    <line x1="-149" y1="5" x2="-39" y2="-10" stroke="#94A3B8" stroke-width="6" stroke-linecap="round"/>
    <line x1="-146" y1="35" x2="-80" y2="25" stroke="#94A3B8" stroke-width="6" stroke-linecap="round"/>
    <line x1="-143" y1="65" x2="-36" y2="50" stroke="#94A3B8" stroke-width="6" stroke-linecap="round"/>
    
    <!-- Text lines right page -->
    <line x1="45" y1="-70" x2="155" y2="-55" stroke="#CBD5E1" stroke-width="6" stroke-linecap="round"/>
    <line x1="42" y1="-40" x2="152" y2="-25" stroke="#CBD5E1" stroke-width="6" stroke-linecap="round"/>
    <line x1="39" y1="-10" x2="149" y2="5" stroke="#CBD5E1" stroke-width="6" stroke-linecap="round"/>
    <line x1="36" y1="20" x2="100" y2="28" stroke="#CBD5E1" stroke-width="6" stroke-linecap="round"/>
    <line x1="33" y1="50" x2="146" y2="65" stroke="#CBD5E1" stroke-width="6" stroke-linecap="round"/>

    <!-- Spine -->
    <line x1="0" y1="-120" x2="0" y2="92" stroke="#64748B" stroke-width="5" stroke-linecap="round"/>
  </g>
</svg>
